<?xml version="1.0" encoding="UTF-8"?>
<svg width="22px" height="22px" viewBox="0 0 22 22" version="1.1" xmlns="http://www.w3.org/2000/svg" xmlns:xlink="http://www.w3.org/1999/xlink">
    <!-- Generator: sketchtool 49.1 (51147) - http://www.bohemiancoding.com/sketch -->
    <title>9C81D2FC-162F-443D-AD08-0ECDF34876EE</title>
    <desc>Created with sketchtool.</desc>
    <defs></defs>
    <g id="Page-1" stroke="none" stroke-width="1" fill="none" fill-rule="evenodd">
        <g id="Desktop" transform="translate(-1260.000000, -513.000000)" fill="#FFFFFF" fill-rule="nonzero">
            <g id="magnifying-glass" transform="translate(1260.000000, 513.000000)">
                <path d="M21.7306122,20.437551 L16.4416327,15.1485714 C17.7526531,13.5502041 18.5428571,11.5028571 18.5428571,9.27142857 C18.5428571,4.15306122 14.3897959,0 9.27142857,0 C4.14857143,0 0,4.15306122 0,9.27142857 C0,14.3897959 4.14857143,18.5428571 9.27142857,18.5428571 C11.5028571,18.5428571 13.5457143,17.7571429 15.1440816,16.4461224 L20.4330612,21.7306122 C20.7922449,22.0897959 21.3714286,22.0897959 21.7306122,21.7306122 C22.0897959,21.3759184 22.0897959,20.7922449 21.7306122,20.437551 Z M9.27142857,16.697551 C5.1722449,16.697551 1.84081633,13.3661224 1.84081633,9.27142857 C1.84081633,5.17673469 5.1722449,1.84081633 9.27142857,1.84081633 C13.3661224,1.84081633 16.7020408,5.17673469 16.7020408,9.27142857 C16.7020408,13.3661224 13.3661224,16.697551 9.27142857,16.697551 Z" id="Shape"></path>
            </g>
        </g>
    </g>
</svg>