<?xml version="1.0" encoding="UTF-8"?>
<svg width="18px" height="17px" viewBox="0 0 18 17" version="1.1" xmlns="http://www.w3.org/2000/svg" xmlns:xlink="http://www.w3.org/1999/xlink">
    <!-- Generator: sketchtool 49.1 (51147) - http://www.bohemiancoding.com/sketch -->
    <title>DF37E43F-EBB8-461D-B1C1-1DD6C710B9C8</title>
    <desc>Created with sketchtool.</desc>
    <defs></defs>
    <g id="Page-1" stroke="none" stroke-width="1" fill="none" fill-rule="evenodd">
        <g id="Desktop" transform="translate(-387.000000, -998.000000)" fill="#ED8A19" fill-rule="nonzero">
            <g id="star" transform="translate(387.000000, 998.000000)">
                <path d="M9.856875,0.549173913 L11.8845,4.59813043 C12.0255,4.87973913 12.298125,5.07486957 12.6135,5.11995652 L17.147625,5.76928261 C17.941875,5.8831087 18.25875,6.84471739 17.68425,7.39647826 L14.403375,10.5481304 C14.175375,10.7672826 14.071125,11.0832609 14.125125,11.392587 L14.8995,15.8428913 C15.03525,16.6223043 14.205,17.2165652 13.49475,16.8488478 L9.4395,14.7478696 C9.1575,14.6018913 8.820375,14.6018913 8.538375,14.7478696 L4.483125,16.8488478 C3.772875,17.2169348 2.942625,16.6223043 3.078375,15.8428913 L3.85275,11.392587 C3.90675,11.0832609 3.8025,10.7672826 3.5745,10.5481304 L0.293625,7.39647826 C-0.280875,6.84434783 0.036,5.88273913 0.83025,5.76928261 L5.364375,5.11995652 C5.67975,5.07486957 5.952375,4.87973913 6.093375,4.59813043 L8.121,0.549173913 C8.47575,-0.160021739 9.50175,-0.160021739 9.856875,0.549173913 Z" id="Shape"></path>
            </g>
        </g>
    </g>
</svg>