<svg xmlns="http://www.w3.org/2000/svg" width="20" height="19" viewBox="0 0 20 19">
    <path fill="none" fill-rule="nonzero" stroke="#ED8A19" d="M10.857 1.55l2.027 4.048a.967.967 0 0 0 .73.522l4.534.65c.794.113 1.11 1.075.536 1.626l-3.28 3.152a.946.946 0 0 0-.279.845l.774 4.45c.136.78-.694 1.374-1.404 1.006l-4.055-2.101a.982.982 0 0 0-.902 0l-4.055 2.1c-.71.369-1.54-.226-1.405-1.005l.775-4.45a.946.946 0 0 0-.279-.845l-3.28-3.152c-.575-.552-.258-1.513.536-1.627l4.534-.649a.967.967 0 0 0 .73-.522L9.12 1.55c.355-.709 1.38-.709 1.736 0z"/>
</svg>
