<?xml version="1.0" encoding="UTF-8"?>
<svg width="160px" height="194px" viewBox="0 0 160 194" version="1.1" xmlns="http://www.w3.org/2000/svg" xmlns:xlink="http://www.w3.org/1999/xlink">
    <!-- Generator: sketchtool 49.1 (51147) - http://www.bohemiancoding.com/sketch -->
    <title>8EBDE919-7AF2-4603-9B7F-559562555B81</title>
    <desc>Created with sketchtool.</desc>
    <defs>
        <rect id="path-1" x="125" y="312" width="1190" height="664"></rect>
    </defs>
    <g id="Page-1" stroke="none" stroke-width="1" fill="none" fill-rule="evenodd">
        <g id="Detail---error" transform="translate(-645.000000, -470.000000)">
            <rect id="Rectangle-3" fill="#F4F4F4" x="0" y="0" width="1440" height="1870"></rect>
            <g id="Rectangle-4">
                <use fill="#FFFFFF" fill-rule="evenodd" xlink:href="#path-1"></use>
                <rect stroke="#D8D8D8" stroke-width="1" x="125.5" y="312.5" width="1189" height="663"></rect>
            </g>
            <g id="file" opacity="0.05" transform="translate(645.000000, 470.000000)" fill="#000000" fill-rule="nonzero">
                <path d="M133.845588,119.817261 L133.845588,26.6655273 C133.845588,11.9621885 121.961765,0 107.352941,0 L26.4926472,0 C11.8838234,0 0,11.9621885 0,26.6655273 L0,141.31723 C0,156.022049 11.8838234,167.984238 26.4926472,167.984238 L86.4014705,167.984238 C91.402941,183.082764 105.576471,194 122.236765,194 C143.060294,194 160,176.947739 160,155.989487 C160,139.104477 149.005882,124.759323 133.845588,119.817261 Z M84.4735292,155.989487 C84.4735292,156.198181 84.4779411,156.406876 84.4808824,156.61705 L26.4926472,156.61705 C18.1117647,156.61705 11.2941176,149.753815 11.2941176,141.31723 L11.2941176,26.6655273 C11.2941176,18.2304229 18.1117647,11.3671875 26.4926472,11.3671875 L107.352941,11.3671875 C115.733824,11.3671875 122.551471,18.2304229 122.551471,26.6655273 L122.551471,117.980454 C122.447059,117.980454 122.342647,117.977493 122.236765,117.977493 C101.413235,117.977493 84.4735292,135.028274 84.4735292,155.989487 Z M122.236765,182.632812 C107.641176,182.632812 95.7676469,170.679504 95.7676469,155.989487 C95.7676469,141.296509 107.641176,129.344681 122.236765,129.344681 C136.832353,129.344681 148.705882,141.296509 148.705882,155.989487 C148.705882,170.679504 136.832353,182.632812 122.236765,182.632812 Z" id="Shape"></path>
                <path d="M136.325109,141.673775 C134.09341,139.442075 130.472667,139.442075 128.240968,141.673775 L122.500186,147.414557 L116.759404,141.673775 C114.527705,139.442075 110.906963,139.442075 108.673774,141.673775 C106.442075,143.905474 106.442075,147.526216 108.673774,149.757916 L114.414556,155.498698 L108.673774,161.23948 C106.442075,163.472667 106.442075,167.091921 108.673774,169.325109 C109.790368,170.441703 111.253851,171 112.717334,171 C114.179327,171 115.64281,170.441703 116.759404,169.325109 L122.500186,163.584327 L128.240968,169.325109 C129.356074,170.441703 130.819556,171 132.283038,171 C133.745032,171 135.208515,170.441703 136.325109,169.325109 C138.556808,167.091921 138.556808,163.472667 136.325109,161.23948 L130.584327,155.498698 L136.325109,149.757916 C138.558297,147.526216 138.558297,143.906963 136.325109,141.673775 Z" id="Shape"></path>
                <path d="M106.313696,23 L29.6863042,23 C26.5469904,23 24,25.4621095 24,28.5 C24,31.5364583 26.5469904,34 29.6863042,34 L106.313696,34 C109.45449,34 112,31.5364583 112,28.5 C112,25.4621095 109.45449,23 106.313696,23 Z" id="Shape"></path>
                <path d="M29.6397472,53 L94.3602528,53 C97.4753318,53 100,50.5378905 100,47.5 C100,44.4635417 97.4753318,42 94.3602528,42 L29.6397472,42 C26.5261368,42 24,44.4635417 24,47.5 C24,50.5378905 26.5246682,53 29.6397472,53 Z" id="Shape"></path>
                <path d="M105.351795,62 L29.6482045,62 C26.5299249,62 24,64.4621095 24,67.5 C24,70.5364583 26.5299249,73 29.6482045,73 L105.351795,73 C108.471546,73 111,70.5364583 111,67.5 C111,64.4621095 108.471546,62 105.351795,62 Z" id="Shape"></path>
                <path d="M48.2913776,135 L29.7086224,135 C26.5569871,135 24,137.462109 24,140.5 C24,143.536458 26.5569871,146 29.7086224,146 L48.2913776,146 C51.4444998,146 54,143.536458 54,140.5 C54,137.462109 51.4444998,135 48.2913776,135 Z" id="Shape"></path>
            </g>
        </g>
    </g>
</svg>