<svg xmlns="http://www.w3.org/2000/svg" width="15" height="15" viewBox="0 0 15 15">
    <g fill="none" fill-rule="evenodd">
        <path d="M0 0h15v15H0z"/>
        <path fill="#000" d="M5 7.188a.936.936 0 0 0-.938-.938.936.936 0 0 0-.937.938c0 .518.419.937.938.937A.936.936 0 0 0 5 7.187zm4.375-3.125a.936.936 0 0 0-.938-.938H6.563a.936.936 0 0 0-.938.938c0 .518.419.937.938.937h1.875a.936.936 0 0 0 .937-.938zM5.312 9.375a.936.936 0 0 0-.937.938c0 .518.419.937.938.937a.936.936 0 0 0 .937-.938.936.936 0 0 0-.938-.937zM7.5.625A6.88 6.88 0 0 0 .625 7.5 6.88 6.88 0 0 0 7.5 14.375 6.88 6.88 0 0 0 14.375 7.5 6.88 6.88 0 0 0 7.5.625zm0 12.5A5.633 5.633 0 0 1 1.875 7.5c0-3.1 2.525-5.625 5.625-5.625S13.125 4.4 13.125 7.5 10.6 13.125 7.5 13.125zm3.438-6.875a.936.936 0 0 0-.938.938c0 .518.419.937.938.937a.936.936 0 0 0 .937-.938.936.936 0 0 0-.938-.937zm-1.25 3.125a.936.936 0 0 0-.938.938c0 .518.419.937.938.937a.936.936 0 0 0 .937-.938.936.936 0 0 0-.938-.937z"/>
    </g>
</svg>
