<svg xmlns="http://www.w3.org/2000/svg" xmlns:xlink="http://www.w3.org/1999/xlink" width="146" height="146" viewBox="0 0 146 146">
    <defs>
        <path id="a" d="M458 352h849v574H458z"/>
    </defs>
    <g fill="none" fill-rule="evenodd">
        <path fill="#F4F4F4" d="M-817-499H623v2141H-817z"/>
        <g transform="translate(-817 -499)">
            <use fill="#FFF" xlink:href="#a"/>
            <path stroke="#D8D8D8" d="M458.5 352.5h848v573h-848z"/>
        </g>
        <g opacity=".05">
            <path fill="#000" d="M104.167 91.667h-6.584l-2.333-2.25c8.167-9.5 13.083-21.834 13.083-35.25C108.333 24.25 84.083 0 54.167 0 24.25 0 0 24.25 0 54.167c0 29.916 24.25 54.166 54.167 54.166 13.416 0 25.75-4.916 35.25-13.083l2.25 2.333v6.584l41.666 41.583 12.417-12.417-41.583-41.666zm-50 0c-20.75 0-37.5-16.75-37.5-37.5s16.75-37.5 37.5-37.5 37.5 16.75 37.5 37.5-16.75 37.5-37.5 37.5z"/>
            <path d="M-25-25h200v200H-25z"/>
            <path fill="#000" d="M65.952 71.844L54.167 60.06 42.382 71.844l-5.893-5.892 11.785-11.785L36.49 42.382l5.893-5.893 11.785 11.785L65.952 36.49l5.892 5.893L60.06 54.167l11.785 11.785z"/>
        </g>
    </g>
</svg>
