<?xml version="1.0" encoding="UTF-8"?>
<svg width="20px" height="20px" viewBox="0 0 20 20" version="1.1" xmlns="http://www.w3.org/2000/svg" xmlns:xlink="http://www.w3.org/1999/xlink">
    <!-- Generator: sketchtool 49.1 (51147) - http://www.bohemiancoding.com/sketch -->
    <title>FCEAACCD-3B8D-467B-A9CB-B2E0F8C52B48</title>
    <desc>Created with sketchtool.</desc>
    <defs></defs>
    <g id="Page-1" stroke="none" stroke-width="1" fill="none" fill-rule="evenodd">
        <g id="Desktop" transform="translate(-870.000000, -514.000000)" fill="#000000" fill-rule="nonzero">
            <g id="placeholder" transform="translate(870.000000, 514.000000)">
                <path d="M10.5,9 C11.8785714,9 13,7.87821429 13,6.5 C13,5.12178571 11.8785714,4 10.5,4 C9.12142857,4 8,5.12178571 8,6.5 C8,7.87821429 9.12142857,9 10.5,9 Z M10.5,4.71428571 C11.4846429,4.71428571 12.2857143,5.51535714 12.2857143,6.5 C12.2857143,7.48464286 11.4846429,8.28571429 10.5,8.28571429 C9.51535714,8.28571429 8.71428571,7.48464286 8.71428571,6.5 C8.71428571,5.51535714 9.51535714,4.71428571 10.5,4.71428571 Z" id="Shape"></path>
                <path d="M10.5006577,18 L15.7009702,10.7164381 C17.6514688,8.19478788 17.3694363,4.04989316 15.0972445,1.84677758 C13.8694541,0.655806564 12.23692,0 10.5006577,0 C8.76439534,0 7.13186127,0.655806564 5.90407091,1.84644886 C3.63187908,4.04956444 3.34984662,8.19445916 5.2925486,10.7062476 L10.5006577,18 Z M6.38339051,2.31126614 C7.48338491,1.24488193 8.94541137,0.657450189 10.5006577,0.657450189 C12.055904,0.657450189 13.5179305,1.24488193 14.6179249,2.31126614 C16.6687619,4.29972424 16.921303,8.04324561 15.1511425,10.3318297 L10.5006577,16.84486 L5.84271529,10.321968 C4.0800124,8.04324561 4.33289247,4.29972424 6.38339051,2.31126614 Z" id="Shape"></path>
                <path d="M14.039,14.0027569 C13.8556667,13.9791109 13.6903333,14.1181631 13.669,14.3119186 C13.6476667,14.505674 13.7783333,14.6810774 13.961,14.7036646 C17.4663333,15.1405849 19.3333333,16.3179405 19.3333333,17.0001432 C19.3333333,17.9579798 15.7826667,19.2941513 10,19.2941513 C4.21733333,19.2941513 0.666666667,17.9579798 0.666666667,17.0001432 C0.666666667,16.3179405 2.53366667,15.1405849 6.039,14.7036646 C6.22166667,14.6810774 6.35233333,14.5053211 6.331,14.3119186 C6.30933333,14.1181631 6.144,13.9784051 5.961,14.0027569 C2.45133333,14.440383 0,15.6727948 0,17.0001432 C0,18.4908956 3.435,20 10,20 C16.565,20 20,18.4908956 20,17.0001432 C20,15.6727948 17.5486667,14.440383 14.039,14.0027569 Z" id="Shape"></path>
            </g>
        </g>
    </g>
</svg>