<svg xmlns="http://www.w3.org/2000/svg" width="20" height="20" viewBox="0 0 20 20">
    <path fill="#000" fill-rule="nonzero" d="M3.75 13.333c.372 0 .547-.458.295-.711l-3.04-3.039 3.04-3.038c.372-.358-.238-.955-.59-.59L.122 9.288a.418.418 0 0 0 0 .59l3.333 3.334c.08.08.183.121.295.121zM11.25 10H2.917a.416.416 0 1 1 0-.833h8.333a.416.416 0 1 1 0 .833zm-5-10C5.565 0 5 .565 5 1.25v4.167c0 .554.833.547.833 0V1.25c0-.238.179-.417.417-.417h12.5c.238 0 .417.179.417.417v17.5a.407.407 0 0 1-.417.417H6.25a.407.407 0 0 1-.417-.417v-5c0-.557-.833-.544-.833 0v5c0 .685.565 1.25 1.25 1.25h12.5c.685 0 1.25-.565 1.25-1.25V1.25C20 .565 19.435 0 18.75 0H6.25z"/>
</svg>
