<svg xmlns="http://www.w3.org/2000/svg" width="20" height="20" viewBox="0 0 20 20">
    <path fill="#000" fill-rule="nonzero" d="M14.917 2.508a.439.439 0 0 0-.215.05l-3.12 1.629-3.173-1.534a.44.44 0 0 0-.447.037.4.4 0 0 0-.164.402l.656 3.34-2.506 2.41a.397.397 0 0 0-.1.42.421.421 0 0 0 .347.272l3.525.436 1.625 3.023c.073.14.223.227.385.225a.426.426 0 0 0 .38-.235l1.523-3.07 3.508-.541a.42.42 0 0 0 .34-.282.398.398 0 0 0-.114-.418l-2.583-2.334.545-3.358a.397.397 0 0 0-.095-.324.432.432 0 0 0-.316-.145l-.001-.003zm-.563 1.162l-.45 2.754a.4.4 0 0 0 .13.357l2.12 1.914-2.879.445a.424.424 0 0 0-.317.225l-1.25 2.52-1.33-2.48a.425.425 0 0 0-.325-.218L7.16 8.83l2.056-1.977a.398.398 0 0 0 .116-.362l-.538-2.738 2.602 1.259a.44.44 0 0 0 .397-.007l2.56-1.336v.001zM20 6.25c0 .23-.186.417-.417.417h-1.666a.416.416 0 1 1 0-.834h1.666c.231 0 .417.186.417.417zM3.735 4.163c-.402 0-.575.6-.17.792l1.666.833c.458.253.877-.518.372-.744l-1.667-.833a.41.41 0 0 0-.2-.048h-.001zm10.848 7.504a.407.407 0 0 0-.368.602l.833 1.667c.24.536.959.015.746-.372l-.833-1.666a.424.424 0 0 0-.378-.231zM11.25 0c.23 0 .417.186.417.417v1.666a.416.416 0 1 1-.834 0V.417c0-.231.186-.417.417-.417zM7.908 10.833a.401.401 0 0 0-.286.123L.355 18.223c-.227.225-.355.502-.355.783 0 .272.086.535.267.719.18.185.443.275.718.275.278 0 .563-.127.792-.356l7.268-7.266c.377-.362-.22-.959-.59-.589l-7.267 7.267c-.275.273-.495.005-.245-.245l7.269-7.267c.25-.245.083-.713-.304-.71z"/>
</svg>
