<svg xmlns="http://www.w3.org/2000/svg" width="20" height="20" viewBox="0 0 20 20">
    <path fill="#000" fill-rule="nonzero" d="M5.417 3.333a2.09 2.09 0 0 0-2.084 2.084A2.09 2.09 0 0 0 5.417 7.5 2.09 2.09 0 0 0 7.5 5.417a2.09 2.09 0 0 0-2.083-2.084zm0 .834c.695 0 1.25.555 1.25 1.25s-.555 1.25-1.25 1.25-1.25-.555-1.25-1.25.555-1.25 1.25-1.25zM13.75 7.5a.456.456 0 0 0-.277.1l-5.556 4.74-2.199-2.223a.416.416 0 0 0-.588 0l-3.327 3.325c-.409.393.196.997.588.589l3.025-3.028L7.624 13.2a.418.418 0 0 0 .567.02l5.558-4.737 3.859 3.883c.391.408.997-.195.589-.587l-4.16-4.158a.388.388 0 0 0-.288-.122l.001.002zM2.083 15.833h15.834a.416.416 0 1 1 0 .834H2.083a.416.416 0 1 1 0-.834zM1.25 0C.565 0 0 .565 0 1.25v17.5C0 19.435.565 20 1.25 20h17.5c.685 0 1.25-.565 1.25-1.25V1.25C20 .565 19.435 0 18.75 0H1.25zm0 .833h17.5c.238 0 .417.179.417.417v17.5a.407.407 0 0 1-.417.417H1.25a.407.407 0 0 1-.417-.417V1.25c0-.238.179-.417.417-.417z"/>
</svg>
