<svg xmlns="http://www.w3.org/2000/svg" width="20" height="15" viewBox="0 0 20 15">
    <path fill="#000" fill-rule="nonzero" d="M1.164.08c-.27-.003-.4.2-.4.4 0 .203.13.405.4.4h2.082l1.928 8.49.004.016c.068.253.174.508.364.72.19.216.488.375.822.375h10.77c.335 0 .632-.163.82-.376.188-.213.293-.464.364-.712l1.613-5.6c.108-.376-.064-.747-.301-.966a1.298 1.298 0 0 0-.883-.345H5.963c-.27-.004-.4.2-.4.4 0 .203.13.404.4.4h12.784c.283 0 .456.14.416.29l-1.613 5.6c-.1.371-.228.51-.416.51H6.364c-.109 0-.151-.024-.223-.104a1.069 1.069 0 0 1-.189-.395L3.954.392a.4.4 0 0 0-.39-.312h-2.4zm5.6 4.8a.4.4 0 1 0 0 .8h10.4a.4.4 0 1 0 0-.8h-10.4zm.8 2.4a.4.4 0 1 0 0 .8h8.8a.4.4 0 1 0 0-.8h-8.8zm-.4 4c-.88 0-1.6.722-1.6 1.6 0 .88.72 1.6 1.6 1.6.88 0 1.6-.72 1.6-1.6 0-.878-.72-1.6-1.6-1.6zm8.8 0c-.88 0-1.6.722-1.6 1.6 0 .88.72 1.6 1.6 1.6.88 0 1.6-.72 1.6-1.6 0-.878-.72-1.6-1.6-1.6zm-8.8.8c.446 0 .8.354.8.8 0 .448-.354.8-.8.8a.793.793 0 0 1-.8-.8c0-.446.354-.8.8-.8zm8.8 0c.446 0 .8.354.8.8 0 .448-.354.8-.8.8a.793.793 0 0 1-.8-.8c0-.446.354-.8.8-.8z"/>
</svg>
