<svg xmlns="http://www.w3.org/2000/svg" width="20" height="20" viewBox="0 0 20 20">
    <path fill="#000" fill-rule="nonzero" d="M10 6.667A3.34 3.34 0 0 0 6.667 10 3.34 3.34 0 0 0 10 13.333 3.34 3.34 0 0 0 13.333 10 3.34 3.34 0 0 0 10 6.667zm0 .833c1.386 0 2.5 1.114 2.5 2.5s-1.114 2.5-2.5 2.5A2.493 2.493 0 0 1 7.5 10c0-1.386 1.114-2.5 2.5-2.5zM9.583 0c-.685 0-1.25.565-1.25 1.25v1.513c-.82.192-1.596.52-2.308.972l-1.023-1.09c-.48-.51-1.292-.494-1.778-.01l-.59.59c-.483.482-.5 1.296.01 1.776l1.09 1.024a7.464 7.464 0 0 0-.967 2.308H1.25c-.685 0-1.25.565-1.25 1.25v.834c0 .685.565 1.25 1.25 1.25h1.512a7.49 7.49 0 0 0 .946 2.269l-1.075 1.072a1.257 1.257 0 0 0 0 1.767l.59.59a1.257 1.257 0 0 0 1.766 0l1.07-1.07a7.48 7.48 0 0 0 2.272.94v1.515c0 .685.565 1.25 1.25 1.25h.833c.685 0 1.25-.565 1.25-1.25v-1.512a7.49 7.49 0 0 0 2.27-.945l1.072 1.073a1.257 1.257 0 0 0 1.767 0l.59-.59a1.257 1.257 0 0 0 0-1.766l-1.07-1.07a7.48 7.48 0 0 0 .94-2.272h1.517c.685 0 1.25-.565 1.25-1.25v-.833c0-.685-.565-1.25-1.25-1.25h-1.512a7.49 7.49 0 0 0-.945-2.27l1.074-1.073a1.257 1.257 0 0 0 0-1.767l-.59-.59a1.257 1.257 0 0 0-1.766 0l-1.07 1.07a7.48 7.48 0 0 0-2.272-.94V1.25c0-.685-.565-1.25-1.25-1.25h-.836zm0 .833h.834c.238 0 .416.179.416.417v1.783c0 .202.145.376.344.411a6.655 6.655 0 0 1 2.63 1.086c.165.116.39.096.533-.048l1.258-1.258c.167-.169.42-.169.589 0l.589.588c.169.169.169.421 0 .59l-1.263 1.265a.417.417 0 0 0-.046.533c.548.786.922 1.68 1.094 2.625a.417.417 0 0 0 .41.342h1.779c.238 0 .417.178.417.416v.834a.407.407 0 0 1-.417.416h-1.783a.417.417 0 0 0-.411.344 6.655 6.655 0 0 1-1.086 2.63.417.417 0 0 0 .047.533l1.259 1.258c.169.167.169.42 0 .589l-.588.589a.405.405 0 0 1-.59 0l-1.265-1.263a.417.417 0 0 0-.533-.046 6.675 6.675 0 0 1-2.625 1.094.417.417 0 0 0-.342.41v1.779a.407.407 0 0 1-.416.417h-.834a.407.407 0 0 1-.416-.417v-1.783a.417.417 0 0 0-.344-.411 6.655 6.655 0 0 1-2.63-1.086.417.417 0 0 0-.533.047l-1.258 1.259a.404.404 0 0 1-.589 0l-.589-.588a.405.405 0 0 1 0-.59l1.263-1.265a.417.417 0 0 0 .046-.533 6.675 6.675 0 0 1-1.094-2.625.417.417 0 0 0-.41-.342H1.25a.407.407 0 0 1-.417-.416v-.834c0-.238.179-.416.417-.416h1.783a.417.417 0 0 0 .411-.344 6.66 6.66 0 0 1 1.119-2.67.417.417 0 0 0-.056-.545L3.215 4.39c-.162-.15-.158-.41.008-.579l.59-.589c.169-.169.428-.172.58-.01l1.216 1.295a.417.417 0 0 0 .546.056 6.667 6.667 0 0 1 2.67-1.127.417.417 0 0 0 .343-.41V1.25c0-.238.178-.417.416-.417z"/>
</svg>
