<svg xmlns="http://www.w3.org/2000/svg" width="20" height="14" viewBox="0 0 20 14">
    <path fill="#000" fill-rule="nonzero" d="M2.083 1.667c-.416 0-.569.538-.231.763l6.665 4.58c.408.28.9.49 1.483.49.583 0 1.08-.208 1.488-.49l6.664-4.58c.46-.312-.05-.98-.472-.687l-6.663 4.582c-.317.217-.625.342-1.017.342-.392 0-.697-.125-1.012-.342L2.323 1.742a.453.453 0 0 0-.24-.075zM1.25 0C.565 0 0 .565 0 1.25v10.833c0 .685.565 1.25 1.25 1.25h17.5c.685 0 1.25-.565 1.25-1.25V1.25C20 .565 19.435 0 18.75 0H1.25zm0 .833h17.5c.238 0 .417.179.417.417v10.833a.407.407 0 0 1-.417.417H1.25a.407.407 0 0 1-.417-.417V1.25c0-.238.179-.417.417-.417z"/>
</svg>
