<svg xmlns="http://www.w3.org/2000/svg" width="20" height="20" viewBox="0 0 20 20">
    <path fill="#000" fill-rule="nonzero" d="M14.583 12.5a2.09 2.09 0 0 0-2.083 2.083 2.09 2.09 0 0 0 2.083 2.084 2.09 2.09 0 0 0 2.084-2.084 2.09 2.09 0 0 0-2.084-2.083zm0 .833c.695 0 1.25.555 1.25 1.25s-.555 1.25-1.25 1.25-1.25-.555-1.25-1.25.555-1.25 1.25-1.25zm-.833-4.166a.417.417 0 0 0-.417.416v1.503a3.448 3.448 0 0 0-.338.141l-1.105-1.105a.417.417 0 0 0-.59 0L10.123 11.3a.418.418 0 0 0 0 .59l1.106 1.105c-.052.11-.1.222-.141.338H9.583a.417.417 0 0 0-.416.417v1.667c0 .23.186.416.416.416h1.503c.041.117.088.228.141.338l-1.105 1.105a.417.417 0 0 0 0 .59l1.179 1.178a.418.418 0 0 0 .59 0l1.105-1.106c.11.053.222.1.338.142v1.502c0 .23.187.417.417.417h1.667c.23 0 .416-.187.416-.417v-1.502c.117-.042.228-.088.338-.142l1.105 1.106a.417.417 0 0 0 .59 0l1.178-1.18a.418.418 0 0 0 0-.59l-1.106-1.104c.053-.111.1-.223.142-.338h1.502c.23 0 .417-.187.417-.417v-1.667a.417.417 0 0 0-.417-.417h-1.502a3.448 3.448 0 0 0-.142-.338l1.106-1.105a.417.417 0 0 0 0-.589l-1.18-1.178a.418.418 0 0 0-.59 0l-1.104 1.105c-.111-.052-.223-.1-.338-.141V9.583a.417.417 0 0 0-.417-.416H13.75zm.417.833H15v1.36c0 .19.128.357.313.404.263.069.514.174.748.311.164.097.372.07.506-.065l1.006-1.004.589.589-1.005 1.004a.417.417 0 0 0-.063.506c.139.233.242.487.311.75.048.183.214.31.403.31h1.359V15h-1.361a.416.416 0 0 0-.404.313 2.918 2.918 0 0 1-.31.748.416.416 0 0 0 .065.507l1.004 1.005-.59.589-1.004-1.004a.417.417 0 0 0-.505-.064 2.929 2.929 0 0 1-.75.311.417.417 0 0 0-.311.404v1.359h-.833v-1.361a.416.416 0 0 0-.313-.404 2.918 2.918 0 0 1-.748-.31.416.416 0 0 0-.507.065l-1.005 1.004-.59-.59 1.005-1.004a.417.417 0 0 0 .063-.505 2.929 2.929 0 0 1-.31-.75.417.417 0 0 0-.404-.311H10v-.833h1.36c.19 0 .357-.129.404-.313.069-.263.174-.515.311-.748a.416.416 0 0 0-.065-.507l-1.004-1.005.589-.59 1.004 1.005c.133.133.342.16.506.063.233-.138.487-.241.75-.31a.417.417 0 0 0 .31-.404L14.168 10zM8.333 5.833a2.507 2.507 0 0 0-2.5 2.5c0 1.375 1.125 2.5 2.5 2.5s2.5-1.125 2.5-2.5-1.125-2.5-2.5-2.5zm0 .834A1.66 1.66 0 0 1 10 8.333 1.66 1.66 0 0 1 8.333 10a1.66 1.66 0 0 1-1.666-1.667 1.66 1.66 0 0 1 1.666-1.666zM7.5 0a.841.841 0 0 0-.833.833v1.114a6.626 6.626 0 0 0-1.674.69l-.729-.73a.838.838 0 0 0-1.178 0L1.908 3.085a.838.838 0 0 0 0 1.178l.729.73a6.632 6.632 0 0 0-.697 1.673H.833A.841.841 0 0 0 0 7.499v1.667c0 .454.38.833.833.833h1.114c.153.588.383 1.149.69 1.673l-.73.73a.838.838 0 0 0 0 1.178l1.178 1.178a.838.838 0 0 0 1.178 0l.73-.728a6.632 6.632 0 0 0 1.673.697v1.106c0 .455.379.834.833.834h.417c.55 0 .544-.834 0-.834H7.5v-1.376a.416.416 0 0 0-.332-.409 5.815 5.815 0 0 1-2.046-.851.416.416 0 0 0-.525.051l-.922.922-1.178-1.178.92-.92a.417.417 0 0 0 .053-.525A5.817 5.817 0 0 1 2.625 9.5a.416.416 0 0 0-.408-.333H.833V7.5H2.21a.416.416 0 0 0 .408-.332c.15-.73.44-1.425.852-2.046a.416.416 0 0 0-.052-.525l-.921-.922 1.178-1.178.92.92c.14.14.358.162.525.053a5.817 5.817 0 0 1 2.047-.845.416.416 0 0 0 .333-.408V.833h1.667V2.21c0 .198.138.368.331.408.731.15 1.425.44 2.047.852.165.11.385.088.525-.052l.922-.921 1.178 1.178-.92.92a.417.417 0 0 0-.053.525c.41.62.696 1.317.845 2.047.039.194.21.333.408.333h1.383v.417c0 .556.834.544.834 0V7.5a.841.841 0 0 0-.834-.833H14.72a6.626 6.626 0 0 0-.69-1.674l.73-.729a.838.838 0 0 0 0-1.178l-1.178-1.178a.838.838 0 0 0-1.179 0l-.729.729a6.632 6.632 0 0 0-1.673-.697V.833A.841.841 0 0 0 9.168 0H7.5z"/>
</svg>
