<svg xmlns="http://www.w3.org/2000/svg" width="20" height="19" viewBox="0 0 20 19">
    <g fill="none" fill-rule="evenodd">
        <path fill="#F4F4F4" d="M-1395-558H45v1870h-1440z"/>
        <path fill="#000" fill-rule="nonzero" d="M12.62 4.292l-4.7 4.703-1.372-1.37c-.366-.367-.969.207-.589.587l1.667 1.666a.416.416 0 0 0 .587 0L13.21 4.88a.417.417 0 1 0-.589-.588zM1.25 0C.565 0 0 .565 0 1.25v12.5C0 14.435.565 15 1.25 15h2.083v2.917c0 .37.45.556.712.295L7.255 15H18.75c.685 0 1.25-.565 1.25-1.25V1.25C20 .565 19.435 0 18.75 0H1.25zm0 .833h17.5c.238 0 .417.179.417.417v12.5a.407.407 0 0 1-.417.417H7.083a.417.417 0 0 0-.295.122l-2.621 2.622v-2.328a.417.417 0 0 0-.417-.416h-2.5a.407.407 0 0 1-.417-.417V1.25c0-.238.179-.417.417-.417z"/>
    </g>
</svg>
