<?xml version="1.0" encoding="UTF-8"?>
<svg width="12px" height="12px" viewBox="0 0 12 12" version="1.1" xmlns="http://www.w3.org/2000/svg" xmlns:xlink="http://www.w3.org/1999/xlink">
    <!-- Generator: sketchtool 49.1 (51147) - http://www.bohemiancoding.com/sketch -->
    <title>88B8ABEB-15D2-4C1B-8114-F822B61C5E0E</title>
    <desc>Created with sketchtool.</desc>
    <defs>
        <rect id="path-1" x="466" y="220" width="848" height="285" rx="2"></rect>
    </defs>
    <g id="Page-1" stroke="none" stroke-width="1" fill="none" fill-rule="evenodd">
        <g id="My-Ads-" transform="translate(-846.000000, -296.000000)">
            <rect id="Rectangle-3" fill="#F4F4F4" x="0" y="0" width="1440" height="2141"></rect>
            <g id="Rectangle-33">
                <use fill="#FFFFFF" fill-rule="evenodd" xlink:href="#path-1"></use>
                <rect stroke="#D8D8D8" stroke-width="1" x="466.5" y="220.5" width="847" height="284" rx="2"></rect>
            </g>
            <g id="pantone" transform="translate(846.000000, 296.000000)" fill="#00BDBE" fill-rule="nonzero">
                <path d="M11.2311328,7.26046875 L5.12257031,10.7873672 L5.12257031,11.0024063 C5.12257031,11.3745234 5.00273438,11.7189844 4.80016406,12 L11.0024062,12 C11.5524844,12 12,11.5524844 12,11.0024062 L12,8.23129688 C12,7.75994531 11.6712891,7.36417969 11.2311328,7.26046875 Z" id="Shape"></path>
                <path d="M11.0483438,5.39266406 L10.0188281,3.60850781 C9.84114844,3.30075 9.50988281,3.10959375 9.15428906,3.10959375 C9.0568125,3.10959375 8.96013281,3.12454688 8.86722656,3.15260156 L5.12257031,9.63846094 L5.12257031,9.96454688 L10.7254219,6.72960938 C10.9340859,6.59526563 11.0832891,6.39105469 11.148,6.14964844 C11.2169531,5.89228125 11.1815625,5.62342969 11.0483438,5.39266406 Z" id="Shape"></path>
                <path d="M8.23875,2.23042969 C8.16977344,1.97303906 8.00470312,1.75790625 7.7739375,1.62471094 L5.99163281,0.595617187 C5.8400625,0.508125 5.66779687,0.461859375 5.49342187,0.461859375 C5.34307031,0.461859375 5.19721875,0.496359375 5.0653125,0.559101562 C5.10248437,0.699117187 5.12254687,0.846023437 5.12254687,0.99759375 L5.12254687,8.21219531 L8.13907031,2.9874375 C8.2723125,2.75667188 8.30772656,2.48784375 8.23875,2.23042969 Z" id="Shape"></path>
                <path d="M3.41240625,0 L0.99759375,0 C0.447515625,0 0,0.447515625 0,0.99759375 L0,11.0024062 C0,11.5524844 0.447515625,12 0.99759375,12 L2.54008594,12 L3.41240625,12 C3.96248438,12 4.41,11.5524844 4.41,11.0024062 L4.41,0.99759375 C4.41002344,0.447515625 3.96248438,0 3.41240625,0 Z M2.20502344,10.4640703 C1.83607031,10.4640703 1.53592969,10.1639062 1.53592969,9.795 C1.53592969,9.42609375 1.83609375,9.12592969 2.20502344,9.12592969 C2.57395312,9.12592969 2.87409375,9.42609375 2.87409375,9.795 C2.87409375,10.1639062 2.57392969,10.4640703 2.20502344,10.4640703 Z" id="Shape"></path>
            </g>
        </g>
    </g>
</svg>