<?xml version="1.0" encoding="UTF-8"?>
<svg width="50px" height="40px" viewBox="0 0 50 40" version="1.1" xmlns="http://www.w3.org/2000/svg" xmlns:xlink="http://www.w3.org/1999/xlink">
    <!-- Generator: Sketch 49.1 (51147) - http://www.bohemiancoding.com/sketch -->
    <title>photo-camera</title>
    <desc>Created with Sketch.</desc>
    <defs></defs>
    <g id="Page-1" stroke="none" stroke-width="1" fill="none" fill-rule="evenodd" opacity="0.300000012">
        <g id="Ads-Create" transform="translate(-219.000000, -716.000000)" fill="#030104" fill-rule="nonzero">
            <g id="photo-camera" transform="translate(219.000000, 716.000000)">
                <path d="M25,15 C20.8575,15 17.5,18.359 17.5,22.5 C17.5,26.6425 20.8575,30 25,30 C29.1415,30 32.5,26.6425 32.5,22.5 C32.5,18.359 29.1415,15 25,15 Z M45,7.5 L39,7.5 C38.175,7.5 37.286,6.86 37.0255,6.077 L35.4745,1.4225 C35.213,0.64 34.325,0 33.5,0 L16.5,0 C15.675,0 14.786,0.64 14.5255,1.423 L12.9745,6.0775 C12.713,6.86 11.825,7.5 11,7.5 L5,7.5 C2.25,7.5 0,9.75 0,12.5 L0,35 C0,37.75 2.25,40 5,40 L45,40 C47.75,40 50,37.75 50,35 L50,12.5 C50,9.75 47.75,7.5 45,7.5 Z M25,35 C18.0965,35 12.5,29.4035 12.5,22.5 C12.5,15.597 18.0965,10 25,10 C31.9025,10 37.5,15.597 37.5,22.5 C37.5,29.4035 31.9025,35 25,35 Z M43.25,15.9965 C42.284,15.9965 41.5,15.2135 41.5,14.2465 C41.5,13.2805 42.284,12.4965 43.25,12.4965 C44.217,12.4965 45,13.2805 45,14.2465 C45,15.2135 44.2165,15.9965 43.25,15.9965 Z" id="Shape"></path>
            </g>
        </g>
    </g>
</svg>